<svg width="32" height="32" viewBox="0 0 32 32" fill="none" xmlns="http://www.w3.org/2000/svg">
<g id="Component 1">
<g id="Logo=&#232;&#137;&#190;&#228;&#188;&#152;&#231;&#167;&#145;&#230;&#138;&#128;, Mode=1">
<rect width="32" height="32" rx="16" fill="#7C229B"/>
<g id="Union">
<path d="M8.8335 10.877C11.0426 10.877 12.8334 12.6679 12.8335 14.877V17.1191C12.8337 18.2009 13.7107 19.0781 14.7925 19.0781V21.123H8.69873C6.91698 21.1228 5.47314 19.6783 5.47314 17.8965C5.47321 17.039 5.81402 16.2167 6.42139 15.6113L7.9126 14.126C8.87325 14.6904 9.06441 15.9989 8.30518 16.8145L8.16748 16.9619C8.00357 17.138 7.9127 17.3698 7.9126 17.6104V17.9199C7.91271 18.5594 8.43128 19.0781 9.0708 19.0781H11.5913C11.0254 19.0779 10.5669 18.6187 10.5669 18.0527V15.3057C10.5667 14.056 9.55295 13.043 8.30322 13.043H7.54639V10.877H8.8335Z" fill="white"/>
<path d="M13.3169 10.877C15.5258 10.8772 17.3168 12.668 17.3169 14.877V17.1191C17.3171 18.2009 18.1941 19.0781 19.2759 19.0781V21.123C16.9348 21.0979 15.0493 19.1928 15.0493 16.8516V15.0635C15.0493 13.9478 14.1454 13.0432 13.0298 13.043V10.877H13.3169Z" fill="white"/>
<path d="M17.5034 10.877C19.8711 10.877 21.7904 12.7964 21.7905 15.1641V17.8174C21.7906 18.5135 22.3551 19.0781 23.0513 19.0781C23.7473 19.0781 24.3119 18.5135 24.312 17.8174V11.3477H26.5269V17.5762C26.5269 19.5099 24.9586 21.0781 23.0249 21.0781C21.0913 21.0779 19.5239 19.5098 19.5239 17.5762V14.8975C19.5239 13.8734 18.6935 13.043 17.6694 13.043H17.5034V10.877Z" fill="white"/>
</g>
</g>
</g>
</svg>
